<svg width="45" height="45" viewBox="0 0 45 45" fill="none" xmlns="http://www.w3.org/2000/svg">
<g clip-path="url(#clip0)">
<path d="M44.942 1.82881C43.9218 5.23041 41.9267 11.6463 39.554 18.3259C40.1691 18.51 40.7321 18.6775 41.1893 18.8176C41.3886 18.8783 41.572 18.9824 41.7263 19.1224C41.8806 19.2624 42.002 19.4347 42.0818 19.6272C42.1616 19.8196 42.1978 20.0274 42.1879 20.2355C42.1779 20.4436 42.122 20.6469 42.0242 20.8308C40.0813 24.5483 34.7565 34.26 29.5017 39.6749C29.4138 39.771 29.3259 39.8946 29.238 39.9825C27.6482 41.5728 25.7606 42.8343 23.6832 43.6952C21.6057 44.556 19.3791 44.9992 17.1304 44.9995C14.8816 44.9998 12.6549 44.5571 10.5772 43.6968C8.49955 42.8366 6.61168 41.5755 5.02138 39.9856C3.43109 38.3957 2.16952 36.5081 1.3087 34.4307C0.447888 32.3533 0.004683 30.1266 0.00439467 27.8779C0.00410635 25.6292 0.44674 23.4024 1.30702 21.3247C2.16731 19.2471 3.42839 17.3592 5.01828 15.7689C5.10616 15.681 5.22973 15.5931 5.32585 15.5052C10.7399 10.2401 20.4407 4.92279 24.1673 2.98098C24.3512 2.88315 24.5545 2.82725 24.7626 2.81729C24.9707 2.80733 25.1784 2.84356 25.3708 2.92337C25.5632 3.00319 25.7356 3.12462 25.8755 3.27894C26.0155 3.43326 26.1195 3.61664 26.1802 3.81593C26.3202 4.26362 26.4878 4.8349 26.6718 5.45013C33.3422 3.07711 39.7655 1.08175 43.1666 0.062777C43.4123 -0.0115536 43.6736 -0.0179832 43.9227 0.04417C44.1718 0.106323 44.3994 0.234742 44.5815 0.415803C44.7635 0.596865 44.8931 0.823819 44.9566 1.07259C45.0201 1.32136 45.015 1.58267 44.942 1.82881ZM28.1217 28.1256C28.1214 25.901 27.4615 23.7264 26.2253 21.8768C24.9891 20.0273 23.2323 18.5858 21.1769 17.7347C19.1215 16.8836 16.8599 16.6611 14.6781 17.0953C12.4962 17.5294 10.4921 18.6009 8.91916 20.174C7.34622 21.7472 6.27508 23.7514 5.8412 25.9334C5.40731 28.1153 5.63015 30.3768 6.48155 32.4321C7.33296 34.4874 8.77468 36.244 10.6244 37.4799C12.4741 38.7158 14.6488 39.3755 16.8735 39.3755C18.3507 39.3755 19.8136 39.0846 21.1784 38.5192C22.5432 37.9539 23.7833 37.1252 24.8279 36.0805C25.8724 35.0358 26.7009 33.7956 27.2661 32.4307C27.8312 31.0658 28.122 29.6029 28.1217 28.1256ZM16.8735 25.3132C16.8734 25.8693 16.7084 26.413 16.3993 26.8754C16.0903 27.3377 15.6511 27.6981 15.1372 27.9109C14.6234 28.1237 14.058 28.1793 13.5125 28.0708C12.9671 27.9622 12.466 27.6944 12.0728 27.3011C11.6796 26.9078 11.4118 26.4067 11.3033 25.8612C11.1948 25.3158 11.2506 24.7504 11.4634 24.2365C11.6763 23.7227 12.0367 23.2836 12.4991 22.9746C12.9616 22.6656 13.5052 22.5007 14.0614 22.5007C14.4308 22.5003 14.7967 22.5727 15.1381 22.7139C15.4795 22.8551 15.7897 23.0623 16.0509 23.3235C16.3121 23.5848 16.5192 23.895 16.6604 24.2364C16.8015 24.5778 16.8739 24.9437 16.8735 25.3132H16.8735ZM19.6855 32.3443C19.6855 32.6224 19.603 32.8942 19.4485 33.1254C19.2939 33.3566 19.0743 33.5368 18.8174 33.6432C18.5605 33.7496 18.2778 33.7774 18.0051 33.7231C17.7323 33.6688 17.4818 33.5349 17.2852 33.3383C17.0886 33.1416 16.9547 32.8911 16.9005 32.6184C16.8462 32.3456 16.8741 32.0629 16.9805 31.806C17.0869 31.5491 17.2671 31.3295 17.4984 31.175C17.7296 31.0206 18.0014 30.9381 18.2795 30.9381C18.6521 30.9393 19.009 31.0879 19.2724 31.3513C19.5359 31.6148 19.6844 31.9718 19.6855 32.3443H19.6855Z" fill="white"/>
</g>
<defs>
<clipPath id="clip0">
<rect width="45" height="45" fill="white"/>
</clipPath>
</defs>
</svg>
