<svg width="150" height="43" viewBox="0 0 150 43" fill="none" xmlns="http://www.w3.org/2000/svg">
<g clip-path="url(#clip0)">
<path d="M42.8389 1.74402C41.8665 4.98627 39.9648 11.1017 37.7033 17.4684C38.2896 17.6438 38.8262 17.8035 39.262 17.937C39.452 17.9949 39.6268 18.0941 39.7738 18.2275C39.9209 18.3609 40.0366 18.5252 40.1127 18.7087C40.1888 18.8921 40.2233 19.0901 40.2138 19.2884C40.2043 19.4868 40.151 19.6806 40.0578 19.8559C38.2059 23.3992 33.1305 32.6561 28.1219 37.8172C28.0381 37.9088 27.9543 38.0267 27.8706 38.1104C26.3552 39.6262 24.5561 40.8287 22.5759 41.6492C20.5958 42.4697 18.4735 42.8921 16.3301 42.8924C14.1867 42.8927 12.0642 42.4708 10.0839 41.6508C8.10356 40.8308 6.30412 39.6288 4.78832 38.1134C3.27252 36.598 2.07005 34.7988 1.24956 32.8187C0.429066 30.8386 0.00662261 28.7163 0.00634779 26.5729C0.00607297 24.4295 0.427972 22.307 1.24796 20.3267C2.06794 18.3463 3.26995 16.5469 4.78536 15.0311C4.86912 14.9473 4.98691 14.8636 5.07852 14.7798C10.239 9.7613 19.4854 4.69307 23.0373 2.84222C23.2126 2.74897 23.4064 2.69569 23.6048 2.6862C23.8031 2.6767 24.0011 2.71123 24.1845 2.78731C24.3679 2.86339 24.5322 2.97913 24.6656 3.12622C24.799 3.27331 24.8981 3.4481 24.956 3.63806C25.0895 4.06477 25.2491 4.6093 25.4245 5.1957C31.7825 2.93385 37.9048 1.03195 41.1466 0.0607169C41.3809 -0.0101317 41.6299 -0.0162602 41.8674 0.0429816C42.1048 0.102223 42.3218 0.224626 42.4953 0.397206C42.6688 0.569786 42.7923 0.786108 42.8528 1.02323C42.9133 1.26034 42.9085 1.50941 42.8389 1.74402V1.74402ZM26.8066 26.809C26.8063 24.6886 26.1772 22.6159 24.999 20.8529C23.8207 19.09 22.1461 17.7161 20.187 16.9048C18.2279 16.0936 16.0723 15.8815 13.9926 16.2953C11.913 16.7092 10.0028 17.7304 8.50351 19.2299C7.00426 20.7294 5.98329 22.6397 5.56973 24.7194C5.15617 26.7991 5.36857 28.9548 6.18009 30.9137C6.99161 32.8727 8.3658 34.5471 10.1289 35.7251C11.892 36.9031 13.9648 37.5319 16.0852 37.5319C17.4933 37.5319 18.8876 37.2546 20.1885 36.7157C21.4894 36.1768 22.6714 35.387 23.667 34.3912C24.6626 33.3955 25.4523 32.2134 25.991 30.9124C26.5297 29.6114 26.8068 28.2171 26.8066 26.809V26.809ZM16.0852 24.1283C16.0851 24.6584 15.9279 25.1766 15.6333 25.6173C15.3387 26.058 14.9201 26.4015 14.4303 26.6043C13.9405 26.8071 13.4016 26.8602 12.8817 26.7567C12.3618 26.6532 11.8843 26.3979 11.5094 26.0231C11.1346 25.6482 10.8794 25.1706 10.776 24.6507C10.6726 24.1307 10.7257 23.5918 10.9286 23.1021C11.1315 22.6123 11.475 22.1938 11.9158 21.8993C12.3565 21.6048 12.8748 21.4476 13.4049 21.4476C13.757 21.4472 14.1057 21.5162 14.4311 21.6508C14.7565 21.7854 15.0522 21.9828 15.3012 22.2319C15.5501 22.4809 15.7476 22.7766 15.8821 23.102C16.0166 23.4274 16.0856 23.7761 16.0852 24.1283V24.1283ZM18.7655 30.8301C18.7655 31.0951 18.6869 31.3542 18.5396 31.5746C18.3923 31.7949 18.183 31.9667 17.9381 32.0681C17.6932 32.1695 17.4238 32.196 17.1638 32.1443C16.9038 32.0926 16.6651 31.9649 16.4777 31.7775C16.2902 31.59 16.1626 31.3512 16.1109 31.0913C16.0592 30.8313 16.0858 30.5619 16.1872 30.317C16.2887 30.0721 16.4604 29.8628 16.6808 29.7156C16.9012 29.5683 17.1603 29.4897 17.4254 29.4897C17.7805 29.4909 18.1207 29.6325 18.3718 29.8836C18.6229 30.1347 18.7644 30.475 18.7655 30.8301H18.7655Z" fill="#0659FC"/>
</g>
<path d="M60.7317 31.2603V10.5867H67.9731C70.4816 10.5867 72.3843 11.0695 73.6811 12.035C74.9779 12.991 75.6263 14.3967 75.6263 16.2521C75.6263 17.2649 75.366 18.1594 74.8454 18.9357C74.3248 19.7024 73.6006 20.2656 72.673 20.6253C73.7331 20.8904 74.5661 21.4252 75.172 22.2298C75.7873 23.0344 76.0949 24.0189 76.0949 25.1832C76.0949 27.171 75.4607 28.6761 74.1922 29.6984C72.9238 30.7207 71.1158 31.2414 68.7683 31.2603H60.7317ZM64.9914 22.2582V27.8384H68.6405C69.6439 27.8384 70.4248 27.6017 70.9833 27.1284C71.5513 26.6457 71.8352 25.983 71.8352 25.1406C71.8352 23.2474 70.8555 22.2866 68.8961 22.2582H64.9914ZM64.9914 19.248H68.1435C70.2923 19.2102 71.3667 18.3535 71.3667 16.678C71.3667 15.7409 71.0922 15.0688 70.5431 14.6618C70.0036 14.2453 69.1469 14.037 67.9731 14.037H64.9914V19.248Z" fill="#0659FC"/>
<path d="M87.667 19.745C87.1085 19.6693 86.6163 19.6314 86.1903 19.6314C84.6379 19.6314 83.6203 20.1568 83.1376 21.2075V31.2603H79.0341V15.8971H82.9104L83.024 17.7287C83.8475 16.3183 84.9881 15.6131 86.4459 15.6131C86.9003 15.6131 87.3262 15.6746 87.7238 15.7977L87.667 19.745Z" fill="#0659FC"/>
<path d="M98.8557 29.6984C97.8429 30.929 96.4419 31.5443 94.6529 31.5443C93.0058 31.5443 91.7468 31.071 90.876 30.1244C90.0146 29.1778 89.5744 27.791 89.5555 25.9641V15.8971H93.6589V25.8221C93.6589 27.4219 94.3878 28.2217 95.8456 28.2217C97.2371 28.2217 98.1931 27.739 98.7137 26.7734V15.8971H102.831V31.2603H98.9693L98.8557 29.6984Z" fill="#0659FC"/>
<path d="M110.84 12.1202V15.8971H113.466V18.9073H110.84V26.5747C110.84 27.1426 110.948 27.5496 111.166 27.7958C111.384 28.0419 111.8 28.1649 112.416 28.1649C112.87 28.1649 113.272 28.1318 113.623 28.0655V31.1751C112.818 31.4212 111.99 31.5443 111.138 31.5443C108.26 31.5443 106.793 30.0913 106.736 27.1852V18.9073H104.493V15.8971H106.736V12.1202H110.84Z" fill="#0659FC"/>
<path d="M120.665 12.1202V15.8971H123.292V18.9073H120.665V26.5747C120.665 27.1426 120.774 27.5496 120.992 27.7958C121.21 28.0419 121.626 28.1649 122.241 28.1649C122.696 28.1649 123.098 28.1318 123.448 28.0655V31.1751C122.644 31.4212 121.815 31.5443 120.963 31.5443C118.086 31.5443 116.619 30.0913 116.562 27.1852V18.9073H114.318V15.8971H116.562V12.1202H120.665Z" fill="#0659FC"/>
<path d="M132.649 31.5443C130.396 31.5443 128.56 30.8533 127.14 29.4712C125.73 28.0892 125.024 26.2481 125.024 23.9479V23.5503C125.024 22.0073 125.322 20.6301 125.919 19.4184C126.515 18.1973 127.358 17.2602 128.446 16.607C129.544 15.9444 130.794 15.6131 132.195 15.6131C134.296 15.6131 135.948 16.2757 137.15 17.601C138.362 18.9262 138.968 20.8052 138.968 23.2379V24.9134H129.185C129.317 25.9168 129.715 26.7214 130.377 27.3272C131.049 27.933 131.897 28.2359 132.919 28.2359C134.5 28.2359 135.735 27.6632 136.625 26.5179L138.641 28.7755C138.026 29.6464 137.193 30.3279 136.142 30.8201C135.091 31.3029 133.927 31.5443 132.649 31.5443ZM132.181 18.9357C131.366 18.9357 130.704 19.2102 130.193 19.7592C129.691 20.3082 129.369 21.0939 129.227 22.1162H134.935V21.7896C134.916 20.8809 134.67 20.1804 134.197 19.6882C133.723 19.1865 133.051 18.9357 132.181 18.9357Z" fill="#0659FC"/>
<path d="M149.943 19.745C149.385 19.6693 148.893 19.6314 148.467 19.6314C146.914 19.6314 145.897 20.1568 145.414 21.2075V31.2603H141.31V15.8971H145.187L145.3 17.7287C146.124 16.3183 147.265 15.6131 148.722 15.6131C149.177 15.6131 149.603 15.6746 150 15.7977L149.943 19.745Z" fill="#0659FC"/>
<defs>
<clipPath id="clip0">
<rect width="42.892" height="42.892" fill="white"/>
</clipPath>
</defs>
</svg>
